<?xml version="1.0" encoding="utf-8"?>
<!-- Generator: Adobe Illustrator 27.8.0, SVG Export Plug-In . SVG Version: 6.00 Build 0)  -->
<svg version="1.1" id="Ebene_1" xmlns="http://www.w3.org/2000/svg" xmlns:xlink="http://www.w3.org/1999/xlink" x="0px" y="0px"
	 viewBox="0 0 119 67.1" style="enable-background:new 0 0 119 67.1;" xml:space="preserve">
<style type="text/css">
	.st0{fill:#FFFFFF;}
	.st1{fill:#74C8E1;}
	.st2{fill:#FFD974;}
	.st3{fill:#E73273;}
	.st4{fill:#5FB56D;}
	.st5{fill:#E5213B;}
	.st6{fill:#651C32;}
	.st7{fill:#64256A;}
</style>
<g>
	<path class="st0" d="M110.3,21.2c-0.1,0.3-3.2,12.2-4.5,16.8l-5.4-19.4h-8.2L86.7,38l-5.2-19.4H33.2v25.9c0,2.2,1.8,3.9,3.9,3.9
		h3.9v-11h10.4v-7.2H41.1v-4.5h14.1v22.7h7.9V37.4h10.4v-7.2H63.1v-4.4h12.4l6.6,22.7h9L96.2,31l5.1,17.4h9l8.7-29.8h-5
		C112.4,18.6,110.8,19.7,110.3,21.2z"/>
	<polygon class="st1" points="3.5,50.7 15.5,8.8 18,8.8 18,8.7 19.1,4.9 19.1,4.9 19.1,4.9 23.5,4.9 24.9,0.2 14.8,0.2 0.3,50.7 
		3.8,50.7 3.8,50.7 	"/>
	<polygon class="st2" points="12.6,55.4 4.7,55.4 5.3,53.1 6,50.7 6,50.7 6,50.7 3.8,50.7 1.2,59.8 11.3,59.8 	"/>
	<polygon class="st2" points="6,50.7 6,50.7 3.8,50.7 3.8,50.7 	"/>
	<path class="st3" d="M18,8.8l0-0.2L18,8.8z"/>
	<polygon class="st3" points="19.1,4.9 23.5,4.9 22.4,8.6 23.5,4.9 	"/>
	<polygon class="st3" points="10.4,50.7 10.4,50.7 6,50.7 6,50.7 	"/>
	<polygon class="st3" points="23.5,4.9 22.4,8.6 22.4,8.8 22.4,8.8 25.5,8.8 14.1,48.5 12.2,55.3 9,55.3 9,55.3 4.7,55.3 5.3,53.1 
		4.7,55.4 12.6,55.4 14.7,55.4 29.2,4.9 	"/>
	<polygon class="st3" points="10.4,50.7 10.4,50.7 6,50.7 6,50.7 6,50.7 	"/>
	<polygon class="st4" points="15.5,8.8 3.5,50.7 3.8,50.7 6,50.7 7.2,46.5 18,8.8 	"/>
	<polygon class="st4" points="7.2,46.5 18,8.8 18,8.8 	"/>
	<polygon class="st4" points="6,50.7 7.2,46.5 7.2,46.5 	"/>
	<polygon class="st5" points="6,50.7 6,50.7 5.3,53.1 	"/>
	<polygon class="st5" points="22.4,8.8 11.2,47.6 10.4,50.7 10.4,50.7 10.4,50.7 10.4,50.7 10.4,50.7 6,50.7 5.3,53.1 4.7,55.3 
		9,55.3 9,55.3 12.2,55.3 14.1,48.5 25.5,8.8 	"/>
	<path class="st5" d="M10.4,50.7L10.4,50.7L10.4,50.7z"/>
	<polygon class="st6" points="22.4,8.8 19.8,17.9 22.4,8.8 	"/>
	<polygon class="st6" points="18,8.8 18,8.8 7.2,46.5 6,50.7 10.4,50.7 11.2,47.6 19.8,17.9 22.4,8.8 	"/>
	<polygon class="st6" points="19.8,17.9 11.2,47.6 11.2,47.6 22.4,8.8 	"/>
	<path class="st6" d="M11.2,47.6l8.6-29.7L11.2,47.6z"/>
	<rect x="10.8" y="47.6" class="st6" width="0" height="3.2"/>
	<polygon class="st6" points="10.4,50.7 11.3,47.6 11.3,47.6 	"/>
	<polygon class="st7" points="19.1,4.9 19.1,4.9 18,8.7 	"/>
	<path class="st7" d="M22.4,8.8l0.1-0.2L22.4,8.8z"/>
	<polygon class="st7" points="22.4,8.8 22.4,8.6 23.5,4.9 19.1,4.9 18,8.7 18,8.8 	"/>
	<path class="st7" d="M22.4,8.8L22.4,8.8L22.4,8.8z"/>
	<polygon class="st7" points="22.4,8.8 22.4,8.8 18,8.8 18,8.8 	"/>
	<g>
		<g>
			<path class="st0" d="M72.2,61.6c0-0.3,0.1-0.6,0.2-0.9c0.1-0.3,0.3-0.6,0.5-0.8c0.2-0.2,0.5-0.4,0.7-0.6c0.3-0.1,0.6-0.2,1-0.2
				c0.4,0,0.8,0.1,1.1,0.3c0.3,0.2,0.6,0.5,0.7,0.8L76,60.5c-0.1-0.2-0.2-0.4-0.4-0.5c-0.2-0.1-0.3-0.2-0.5-0.3
				c-0.2-0.1-0.3-0.1-0.5-0.1c-0.3,0-0.5,0.1-0.7,0.2c-0.2,0.1-0.4,0.3-0.5,0.4c-0.1,0.2-0.3,0.4-0.3,0.6c-0.1,0.2-0.1,0.5-0.1,0.7
				c0,0.3,0,0.5,0.1,0.7c0.1,0.2,0.2,0.4,0.4,0.6c0.2,0.2,0.3,0.3,0.5,0.4c0.2,0.1,0.4,0.2,0.7,0.2c0.2,0,0.4,0,0.5-0.1
				c0.2-0.1,0.4-0.2,0.5-0.3c0.2-0.1,0.3-0.3,0.4-0.5l0.5,0.3c-0.1,0.2-0.3,0.5-0.5,0.6c-0.2,0.2-0.5,0.3-0.7,0.4
				c-0.3,0.1-0.5,0.1-0.8,0.1c-0.3,0-0.7-0.1-0.9-0.2c-0.3-0.1-0.5-0.3-0.7-0.6c-0.2-0.2-0.4-0.5-0.5-0.8
				C72.3,62.2,72.2,61.9,72.2,61.6z"/>
			<path class="st0" d="M79.4,64.2c-0.4,0-0.7-0.1-1-0.2c-0.3-0.1-0.5-0.3-0.7-0.6c-0.2-0.2-0.4-0.5-0.5-0.8
				C77.1,62.3,77,62,77,61.7c0-0.3,0.1-0.6,0.2-0.9c0.1-0.3,0.3-0.6,0.5-0.8c0.2-0.2,0.5-0.4,0.7-0.6c0.3-0.1,0.6-0.2,0.9-0.2
				c0.4,0,0.7,0.1,1,0.2c0.3,0.1,0.5,0.3,0.7,0.6c0.2,0.2,0.4,0.5,0.5,0.8c0.1,0.3,0.2,0.6,0.2,0.9c0,0.3-0.1,0.6-0.2,0.9
				c-0.1,0.3-0.3,0.6-0.5,0.8c-0.2,0.2-0.5,0.4-0.7,0.6C80,64.1,79.7,64.2,79.4,64.2z M77.7,61.7c0,0.3,0,0.5,0.1,0.7
				c0.1,0.2,0.2,0.4,0.3,0.6c0.1,0.2,0.3,0.3,0.5,0.4c0.2,0.1,0.4,0.2,0.7,0.2c0.3,0,0.5-0.1,0.7-0.2c0.2-0.1,0.4-0.3,0.5-0.4
				c0.1-0.2,0.3-0.4,0.3-0.6c0.1-0.2,0.1-0.5,0.1-0.7c0-0.3,0-0.5-0.1-0.7c-0.1-0.2-0.2-0.4-0.4-0.6c-0.2-0.2-0.3-0.3-0.5-0.4
				c-0.2-0.1-0.4-0.2-0.7-0.2c-0.3,0-0.5,0.1-0.7,0.2c-0.2,0.1-0.4,0.3-0.5,0.4c-0.1,0.2-0.3,0.4-0.3,0.6
				C77.7,61.2,77.7,61.4,77.7,61.7z"/>
			<path class="st0" d="M86.9,64.2v-3.8l-1.6,2.9h-0.4l-1.6-2.9v3.8h-0.6v-5h0.7l1.8,3.2l1.8-3.2h0.7v5H86.9z"/>
			<path class="st0" d="M89,64.2v-5h2.1c0.2,0,0.4,0,0.6,0.1c0.2,0.1,0.3,0.2,0.5,0.4c0.1,0.2,0.2,0.3,0.3,0.5
				c0.1,0.2,0.1,0.4,0.1,0.6c0,0.3-0.1,0.5-0.2,0.8c-0.1,0.2-0.3,0.4-0.5,0.6c-0.2,0.2-0.5,0.2-0.8,0.2h-1.5v1.8H89z M89.6,61.8h1.5
				c0.2,0,0.3,0,0.5-0.1c0.1-0.1,0.2-0.2,0.3-0.4c0.1-0.2,0.1-0.3,0.1-0.5c0-0.2,0-0.4-0.1-0.5c-0.1-0.2-0.2-0.3-0.3-0.4
				c-0.1-0.1-0.3-0.1-0.4-0.1h-1.4V61.8z"/>
			<path class="st0" d="M94.5,59.2h0.5l2,5h-0.7l-0.6-1.5h-2.1l-0.6,1.5h-0.7L94.5,59.2z M95.7,62.2l-0.9-2.3l-0.9,2.3H95.7z"/>
			<path class="st0" d="M98.5,60.3v3.8h-0.6v-5h0.5l3,3.9v-3.9h0.6v5h-0.6L98.5,60.3z"/>
			<path class="st0" d="M103.6,59.2l1.5,2.6l1.5-2.6h0.7l-1.9,3.2v1.8h-0.6v-1.8l-1.9-3.1H103.6z"/>
		</g>
		<g>
			<path class="st0" d="M35.1,59.2h0.5l2.1,5H37l-0.6-1.5h-2.2l-0.6,1.5H33L35.1,59.2z M36.2,62.2l-0.9-2.3l-0.9,2.3H36.2z"/>
		</g>
		<g>
			<path class="st0" d="M47,59.2h-1.5l-1.8,5h1.4l0.3-0.9h1.8l0.3,0.9h1.4L47,59.2z M46.9,62.3h-1.1l0.6-1.9L46.9,62.3z"/>
			<path class="st0" d="M58.3,59.2h-1.5l-1.8,5h1.4l0.3-0.9h1.8l0.3,0.9h1.4L58.3,59.2z M58.1,62.3H57l0.6-1.9L58.1,62.3z"/>
			<path class="st0" d="M68.1,59.2h-1.5l-1.8,5h1.4l0.3-0.9h1.8l0.3,0.9h1.4L68.1,59.2z M67.9,62.3h-1.1l0.6-1.9L67.9,62.3z"/>
			<polygon class="st0" points="52.6,61.7 54.4,59.2 52.8,59.2 51.2,61.6 51.2,59.2 49.8,59.2 49.8,64.2 51.2,64.2 51.2,61.8 
				52.8,64.2 54.5,64.2 			"/>
			<polygon class="st0" points="62.4,63.2 62.4,59.2 61.1,59.2 61.1,64.2 64,64.2 64,63.2 			"/>
			<polygon class="st0" points="42.8,66.7 42.8,65.9 42.1,65.5 41.4,65.9 41.4,66.7 42.1,67.1 			"/>
			<path class="st0" d="M41.4,64.9c0.8-0.2,1.4-1,1.4-1.8v-3.9h-1.4v3.1v0.5V64.9L41.4,64.9z"/>
			<path class="st0" d="M41.2,63.7c-0.2,0.1-0.3,0.1-0.5,0c-0.2,0-0.4-0.1-0.5-0.2l-0.5,1c0.3,0.2,0.8,0.4,1.5,0.3V63.7z"/>
		</g>
	</g>
</g>
</svg>
